<svg width="30" height="30" viewBox="0 0 30 30" fill="none" xmlns="http://www.w3.org/2000/svg">
<path d="M13.5 30V23.775L8.625 28.575L6.525 26.475L13.5 19.5V16.5H10.5L3.525 23.475L1.425 21.375L6.225 16.5H0V13.5H6.225L1.425 8.625L3.525 6.525L10.5 13.5H13.5V10.5L6.525 3.525L8.625 1.425L13.5 6.225V0H16.5V6.225L21.375 1.425L23.475 3.525L16.5 10.5V13.5H19.5L26.475 6.525L28.575 8.625L23.775 13.5H30V16.5H23.775L28.575 21.375L26.475 23.475L19.5 16.5H16.5V19.5L23.475 26.475L21.375 28.575L16.5 23.775V30H13.5Z" fill="#63F7FF"/>
</svg>
